# xmcd CD database file
#
# Track frame offsets:
#	150
#	7863
#	22566
#	41139
#	68322
#	90728
#	111593
#	133691
#	161354
#	187502
#	221424
#
# Disc length: 3405 seconds
#
# Revision: 0
# Processed by: cddbd v1.5.2PL0 Copyright (c) Steve Scherf et al.
# Submitted via: CDex 1.70beta2
#
DISCID=790d4b0b
DTITLE=Stone and the rockets - live Quasimodo PS 25.12.2009 CD 1
DYEAR=2009
DGENRE=Blues
TTITLE0=Intro
TTITLE1=I feel free 
TTITLE2=I don´t believe
TTITLE3=I won´t back down 
TTITLE4=We´re an American Band 
TTITLE5=Don´t tear me up
TTITLE6=Rebel rebel 
TTITLE7=Badge 
TTITLE8=Tightrope 
TTITLE9=Little wing
TTITLE10=Lazy 
EXTD=YEAR: 2009
EXTT0=
EXTT1=
EXTT2=
EXTT3=
EXTT4=
EXTT5=
EXTT6=
EXTT7=
EXTT8=
EXTT9=
EXTT10=
PLAYORDER=
